<?xml version="1.0" encoding="utf-8"?>
<!-- Generator: Adobe Illustrator 18.0.0, SVG Export Plug-In . SVG Version: 6.00 Build 0)  -->
<!DOCTYPE svg PUBLIC "-//W3C//DTD SVG 1.1//EN" "http://www.w3.org/Graphics/SVG/1.1/DTD/svg11.dtd">
<svg version="1.1" id="Calque_1" xmlns="http://www.w3.org/2000/svg" xmlns:xlink="http://www.w3.org/1999/xlink" x="0px" y="0px"
	 width="160.7px" height="162.9px" viewBox="0 0 160.7 162.9" enable-background="new 0 0 160.7 162.9" xml:space="preserve">
<path fill="#C7A38A" d="M151.8,0H8.9C4,0,0,4,0,9v144.9c0,5,4,9,8.9,9h76.9V99.8H64.9V75.2h20.9V57.1c0-21,12.7-32.5,31.2-32.5
	c8.9,0,16.5,0.7,18.7,1v22l-12.8,0c-10.1,0-12,4.9-12,12v15.7h24l-3.1,24.6h-20.9v63.1h40.9c4.9,0,8.9-4,8.9-9V9
	C160.7,4,156.7,0,151.8,0z"/>
</svg>
