<?xml version="1.0" encoding="utf-8"?>
<!-- Generator: Adobe Illustrator 18.0.0, SVG Export Plug-In . SVG Version: 6.00 Build 0)  -->
<!DOCTYPE svg PUBLIC "-//W3C//DTD SVG 1.1//EN" "http://www.w3.org/Graphics/SVG/1.1/DTD/svg11.dtd">
<svg version="1.1" id="Calque_1" xmlns="http://www.w3.org/2000/svg" xmlns:xlink="http://www.w3.org/1999/xlink" x="0px" y="0px"
	 width="160.7px" height="162.9px" viewBox="0 0 160.7 162.9" enable-background="new 0 0 160.7 162.9" xml:space="preserve">
<g>
	<g>
		<path fill="#C7A38A" d="M142.1,0H18.5C8.3,0,0,8.4,0,18.8v125.3c0,10.4,8.3,18.8,18.5,18.8h123.6c10.2,0,18.5-8.4,18.5-18.8V18.8
			C160.7,8.4,152.4,0,142.1,0z M80.3,50.1c17.1,0,30.9,14,30.9,31.3c0,17.3-13.8,31.3-30.9,31.3c-17.1,0-30.9-14-30.9-31.3
			C49.4,64.1,63.3,50.1,80.3,50.1z M140.6,136.3c0,3.5-2.8,6.3-6.2,6.3H26.3c-3.4,0-6.2-2.8-6.2-6.3V67.9h12.7
			c-0.6,2.1-1,4.3-1.3,6.6c-0.3,2.3-0.5,4.6-0.5,7c0,27.7,22.1,50.1,49.4,50.1c27.3,0,49.4-22.4,49.4-50.1c0-2.4-0.2-4.7-0.5-7
			c-0.3-2.2-0.7-4.5-1.3-6.6h12.7V136.3z M140.6,41.4c0,3.5-2.8,6.3-6.2,6.3h-14.6c-3.4,0-6.2-2.8-6.2-6.3V26.6
			c0-3.5,2.8-6.3,6.2-6.3h14.6c3.4,0,6.2,2.8,6.2,6.3V41.4z"/>
	</g>
</g>
</svg>
