<?xml version="1.0" encoding="utf-8"?>
<!-- Generator: Adobe Illustrator 16.0.4, SVG Export Plug-In . SVG Version: 6.00 Build 0)  -->
<!DOCTYPE svg PUBLIC "-//W3C//DTD SVG 1.1//EN" "http://www.w3.org/Graphics/SVG/1.1/DTD/svg11.dtd">
<svg version="1.1" id="Mode_Isolation" xmlns="http://www.w3.org/2000/svg" xmlns:xlink="http://www.w3.org/1999/xlink" x="0px"
	 y="0px" width="71.3px" height="74.1px" viewBox="0 0 71.3 74.1" enable-background="new 0 0 71.3 74.1" xml:space="preserve">
<g>
	<defs>
		<rect id="SVGID_1_" y="0.001" width="71.299" height="74.125"/>
	</defs>
	<clipPath id="SVGID_2_">
		<use xlink:href="#SVGID_1_"  overflow="visible"/>
	</clipPath>
	<path clip-path="url(#SVGID_2_)" fill="#C6A289" d="M4.817,45.541l0.353,1.143c0.249,0.811-0.146,1.444-0.93,1.688
		c-0.609,0.188-1.256,0.014-1.625-0.517l-1.753,1.963l-0.123-0.395l1.711-1.84l-0.273-0.884l-2.081,0.642L0,47.028L4.817,45.541z
		 M2.446,46.617l0.241,0.783c0.132,0.428,0.634,0.888,1.478,0.628c0.561-0.173,0.946-0.587,0.738-1.262l-0.255-0.829L2.446,46.617z"
		/>
	<polygon clip-path="url(#SVGID_2_)" fill="#C6A289" points="8.075,53.852 7.046,51.985 5.269,52.963 6.009,54.305 5.763,54.441 
		5.025,53.098 3.126,54.145 4.178,56.055 3.933,56.189 2.723,53.991 7.132,51.561 8.32,53.719 	"/>
	<path clip-path="url(#SVGID_2_)" fill="#C6A289" d="M11.47,59.073c0.003-0.418-0.031-0.858-0.312-1.188
		c-0.331-0.39-0.87-0.482-1.275-0.138c-0.299,0.254-0.382,0.555-0.272,1.27l0.075,0.478c0.149,0.923,0.166,1.386-0.308,1.789
		c-0.662,0.563-1.435,0.475-1.994-0.182c-0.385-0.453-0.476-0.992-0.354-1.564l0.317,0.062c-0.122,0.451-0.062,0.954,0.25,1.32
		c0.381,0.449,1.03,0.541,1.488,0.151c0.363-0.308,0.466-0.467,0.284-1.537l-0.09-0.538c-0.095-0.554-0.115-1.099,0.349-1.493
		c0.577-0.489,1.285-0.338,1.757,0.217c0.308,0.363,0.414,0.878,0.397,1.344L11.47,59.073z"/>
	<polygon clip-path="url(#SVGID_2_)" fill="#C6A289" points="17.032,63.443 15.887,62.545 12.955,66.293 12.697,66.089 
		15.628,62.344 14.487,61.451 14.659,61.231 17.205,63.223 	"/>
	<path clip-path="url(#SVGID_2_)" fill="#C6A289" d="M18.904,67.249c0.512-1.025,1.293-2.277,2.508-1.674
		c1.327,0.665,0.534,2.239,0.153,3.002c-0.956,1.916-1.769,2.042-2.489,1.684C18.361,69.904,17.941,69.179,18.904,67.249
		 M19.201,70.011c0.599,0.299,1.242,0.031,2.05-1.589c0.838-1.678,0.612-2.308,0.037-2.595c-0.651-0.326-1.295,0.027-2.07,1.579
		C18.376,69.089,18.637,69.731,19.201,70.011"/>
	<path clip-path="url(#SVGID_2_)" fill="#C6A289" d="M33.103,72.83c0.152-0.384,0.197-0.852,0.239-1.334l0.347,0.031
		c-0.079,0.654-0.174,1.172-0.404,1.615l0.535,0.764l-0.252,0.219l-0.484-0.698c-0.322,0.372-0.74,0.573-1.233,0.527
		c-0.662-0.058-1.1-0.513-1.039-1.181c0.064-0.727,0.548-1.182,1.043-1.69c-0.202-0.412-0.414-0.846-0.373-1.312
		c0.048-0.535,0.348-1.071,0.983-1.016c0.453,0.042,0.741,0.504,0.698,0.984c-0.054,0.6-0.474,0.977-0.899,1.402L33.103,72.83z
		 M32.001,71.411c-0.374,0.396-0.79,0.808-0.84,1.372c-0.043,0.48,0.204,0.848,0.706,0.892c0.446,0.04,0.822-0.151,1.072-0.508
		L32.001,71.411z M31.836,69.726c-0.039,0.438,0.068,0.73,0.27,1.14c0.682-0.859,0.677-0.802,0.71-1.188
		c0.025-0.263-0.097-0.618-0.418-0.647C32.028,68.997,31.863,69.419,31.836,69.726"/>
	<path clip-path="url(#SVGID_2_)" fill="#C6A289" d="M42.777,68.203l1.216-0.332c0.567-0.155,1.045,0.051,1.35,0.374
		c0.244,0.252,0.533,0.777,0.773,1.662c0.336,1.238,0.176,1.847,0.123,2c-0.138,0.379-0.423,0.694-1.016,0.856L44.1,73.069
		L42.777,68.203z M44.344,72.713l0.602-0.164c0.534-0.146,0.961-0.342,1.048-0.952c0.071-0.485-0.089-1.131-0.217-1.598
		c-0.126-0.467-0.332-1.164-0.656-1.527c-0.396-0.442-0.836-0.389-1.351-0.248l-0.604,0.165L44.344,72.713z"/>
	<polygon clip-path="url(#SVGID_2_)" fill="#C6A289" points="50.866,65.437 50.241,65.753 52.266,69.745 52.89,69.429 
		53.016,69.679 51.476,70.46 51.348,70.21 51.973,69.896 49.948,65.902 49.324,66.217 49.198,65.968 50.738,65.187 	"/>
	<polygon clip-path="url(#SVGID_2_)" fill="#C6A289" points="54.972,63 54.97,63.02 57.817,66.599 57.56,66.804 54.421,62.859 
		54.793,62.561 58.826,64.876 58.828,64.857 56.148,61.485 56.405,61.281 59.574,65.264 59.304,65.477 	"/>
	<path clip-path="url(#SVGID_2_)" fill="#C6A289" d="M60.64,58.672c0.092-0.206,0.142-0.476,0.034-0.684
		c-0.025,0.042-0.041,0.084-0.068,0.116c-0.167,0.197-0.408,0.214-0.606,0.046c-0.204-0.171-0.213-0.452-0.053-0.646
		c0.197-0.234,0.535-0.189,0.755-0.006c0.387,0.323,0.351,0.944,0.163,1.363L60.64,58.672z"/>
	<path clip-path="url(#SVGID_2_)" fill="#C6A289" d="M68.844,53.214l-0.176,0.326l-1.564-0.333l-0.817,1.506l1.124,1.139
		l-0.174,0.318l-3.801-3.979L68.844,53.214z M66.074,54.519l0.751-1.384l-2.602-0.517L66.074,54.519z"/>
	<path clip-path="url(#SVGID_2_)" fill="#C6A289" d="M65.767,47.411l0.327-1.086c0.302-0.998,1.108-1.11,1.84-0.891
		c0.95,0.288,1.244,1.013,0.971,1.916l-0.188,0.608l1.963,0.595l-0.094,0.314L65.767,47.411z M66.128,47.178l2.323,0.701
		l0.169-0.562c0.257-0.844-0.099-1.338-0.78-1.544c-0.904-0.273-1.325,0.126-1.472,0.613L66.128,47.178z"/>
	<polygon clip-path="url(#SVGID_2_)" fill="#C6A289" points="1.836,21.528 1.979,21.193 6.612,23.162 6.483,23.465 2.461,21.755 
		2.456,21.767 4.574,23.936 1.542,23.918 1.549,23.936 5.56,25.64 5.431,25.941 0.797,23.974 0.939,23.638 3.936,23.666 	"/>
	<path clip-path="url(#SVGID_2_)" fill="#C6A289" d="M9.663,18.064l-0.203,0.31l-1.529-0.459l-0.939,1.432l1.027,1.227l-0.199,0.305
		L4.359,16.6L9.663,18.064z M6.795,19.135l0.863-1.316l-2.55-0.729L6.795,19.135z"/>
	<path clip-path="url(#SVGID_2_)" fill="#C6A289" d="M7.798,12.399l0.869-0.913c0.405-0.428,0.919-0.499,1.349-0.381
		c0.338,0.091,0.855,0.39,1.521,1.023c0.93,0.884,1.108,1.488,1.142,1.646c0.079,0.395,0.001,0.813-0.424,1.26l-0.802,0.842
		L7.798,12.399z M11.477,15.445l0.429-0.452c0.382-0.401,0.645-0.79,0.403-1.357c-0.191-0.452-0.662-0.919-1.014-1.254
		c-0.35-0.333-0.886-0.826-1.351-0.966c-0.57-0.174-0.919,0.102-1.287,0.487l-0.43,0.452L11.477,15.445z"/>
	<polygon clip-path="url(#SVGID_2_)" fill="#C6A289" points="14.987,6.494 13.261,7.752 14.457,9.393 15.697,8.49 15.862,8.715 
		14.622,9.621 15.901,11.375 17.668,10.088 17.832,10.314 15.8,11.796 12.83,7.72 14.823,6.267 	"/>
	<polygon clip-path="url(#SVGID_2_)" fill="#C6A289" points="26.51,1.363 25.834,1.552 27.041,5.868 27.714,5.68 27.79,5.95 
		26.125,6.415 26.049,6.145 26.723,5.956 25.518,1.639 24.843,1.828 24.768,1.558 26.434,1.094 	"/>
	<polygon clip-path="url(#SVGID_2_)" fill="#C6A289" points="31.312,0.654 31.299,0.67 31.72,5.221 31.392,5.251 30.928,0.234 
		31.402,0.19 33.507,4.332 33.52,4.317 33.124,0.03 33.451,0 33.92,5.067 33.578,5.099 	"/>
	<path clip-path="url(#SVGID_2_)" fill="#C6A289" d="M44.32,0.995l1.155,0.315c0.818,0.222,1.144,0.897,0.927,1.688
		c-0.167,0.614-0.662,1.067-1.307,1.094l0.718,2.534l-0.399-0.11l-0.635-2.429l-0.894-0.244l-0.572,2.102l-0.316-0.087L44.32,0.995z
		 M43.958,3.574L44.75,3.79c0.433,0.119,1.089-0.06,1.322-0.91c0.155-0.567,0.012-1.114-0.67-1.301l-0.836-0.226L43.958,3.574z"/>
	<polygon clip-path="url(#SVGID_2_)" fill="#C6A289" points="52.778,4.473 50.852,3.554 49.978,5.385 51.362,6.045 51.239,6.298 
		49.856,5.638 48.923,7.594 50.893,8.535 50.772,8.788 48.504,7.706 50.677,3.161 52.899,4.22 	"/>
	<polygon clip-path="url(#SVGID_2_)" fill="#C6A289" points="56.369,6.859 56.35,6.861 53.679,10.568 53.413,10.377 56.357,6.289 
		56.744,6.566 55.609,11.071 55.629,11.068 58.146,7.577 58.41,7.769 55.437,11.896 55.16,11.696 	"/>
	<polygon clip-path="url(#SVGID_2_)" fill="#C6A289" points="61.431,11.046 61.412,11.045 58.117,14.21 57.889,13.974 
		61.523,10.483 61.852,10.826 59.926,15.053 59.947,15.054 63.051,12.073 63.278,12.309 59.61,15.834 59.371,15.586 	"/>
	<polygon clip-path="url(#SVGID_2_)" fill="#C6A289" points="67.094,17.902 65.914,16.122 64.22,17.246 65.068,18.524 
		64.834,18.677 63.987,17.4 62.179,18.601 63.387,20.422 63.152,20.578 61.761,18.482 65.964,15.691 67.33,17.747 	"/>
	<path clip-path="url(#SVGID_2_)" fill="#C6A289" d="M69.506,23.754c0.125-0.399,0.222-0.828,0.05-1.227
		c-0.201-0.469-0.688-0.715-1.178-0.505c-0.359,0.156-0.528,0.418-0.632,1.133l-0.068,0.478c-0.126,0.924-0.245,1.373-0.817,1.618
		c-0.796,0.343-1.508,0.034-1.851-0.757c-0.233-0.544-0.163-1.086,0.119-1.598l0.288,0.153c-0.25,0.396-0.341,0.893-0.148,1.334
		c0.232,0.54,0.823,0.818,1.377,0.58c0.437-0.188,0.581-0.311,0.721-1.384l0.07-0.542c0.073-0.556,0.211-1.08,0.77-1.322
		c0.695-0.3,1.325,0.053,1.613,0.721c0.189,0.437,0.142,0.96-0.012,1.401L69.506,23.754z"/>
	<path clip-path="url(#SVGID_2_)" fill="#C6A289" d="M0.125,35.422c-0.203,0.562,0.087,1.184,0.65,1.387
		c0.563,0.203,1.184-0.088,1.387-0.65c0.203-0.562-0.087-1.184-0.65-1.387C0.95,34.569,0.329,34.859,0.125,35.422"/>
	<path clip-path="url(#SVGID_2_)" fill="#C6A289" d="M69.198,35.422c-0.204,0.562,0.087,1.184,0.649,1.387s1.185-0.088,1.387-0.65
		c0.203-0.562-0.087-1.184-0.648-1.387C70.021,34.569,69.401,34.859,69.198,35.422"/>
</g>
</svg>
