<?xml version="1.0" encoding="utf-8"?>
<!-- Generator: Adobe Illustrator 18.0.0, SVG Export Plug-In . SVG Version: 6.00 Build 0)  -->
<!DOCTYPE svg PUBLIC "-//W3C//DTD SVG 1.1//EN" "http://www.w3.org/Graphics/SVG/1.1/DTD/svg11.dtd">
<svg version="1.1" id="Calque_1" xmlns="http://www.w3.org/2000/svg" xmlns:xlink="http://www.w3.org/1999/xlink" x="0px" y="0px"
	 width="71.6px" height="84.8px" viewBox="0 0 71.6 84.8" enable-background="new 0 0 71.6 84.8" xml:space="preserve">
<g>
	<g>
		<path fill="#FAD66C" d="M54.6,0H17c-0.2,0-0.4,0.2-0.4,0.4v4.2C16.6,4.8,16.7,5,17,5h37.7C54.8,5,55,4.8,55,4.6V0.4
			C55,0.2,54.8,0,54.6,0z"/>
	</g>
	<path fill="#BF9C86" d="M71.5,47c0-0.6-0.1-1.2-0.2-1.8c-0.1-1.1-0.3-2.1-0.5-3.1c-0.1-0.6-0.3-1.2-0.4-1.8
		c-4-15.8-18.1-26.9-34.4-27C19.8,13.1,5.5,24,1.2,39.7c-0.2,0.6-0.3,1.2-0.4,1.8c-0.2,1-0.4,2-0.5,3.1c-0.1,0.6-0.1,1.2-0.2,1.8
		C0,47.3,0,48,0,48.7c0,0.2,0,0.3,0,0.5l0,0.3c0,0.6,0,1.2,0.1,1.8c0.1,1.1,0.2,2.1,0.3,3.1c0.1,0.6,0.2,1.2,0.3,1.8
		c3.4,16.4,18,28.4,34.8,28.5c0.1,0,0.2,0,0.3,0c11.4,0,22.2-5.5,28.9-14.7c0.2-0.3,0.3-0.7,0.2-1.1c-0.1-0.4-0.4-0.7-0.8-0.8
		c-0.5-0.2-1.2,0-1.5,0.4c-6.3,8.6-16.3,13.6-26.8,13.6c-0.1,0-0.2,0-0.3,0c-15-0.1-28.1-10.4-31.9-24.9c0-0.2,0-0.3,0.1-0.5
		c0.1-0.1,0.2-0.2,0.4-0.2l1.5,0c0.2,0,0.4,0.2,0.5,0.4c3.6,13.3,15.7,22.6,29.4,22.7c0.1,0,0.2,0,0.2,0c9.3,0,18-4.2,23.9-11.5
		c0.3-0.3,0.4-0.7,0.2-1.2c-0.1-0.4-0.4-0.7-0.8-0.9c-0.5-0.2-1.1,0-1.5,0.4c-5.4,6.8-13.5,10.6-22.1,10.5c-12.3-0.1-23-8-26.7-19.8
		c-0.1-0.2,0-0.3,0.1-0.5c0.1-0.1,0.3-0.2,0.4-0.2c0,0,0,0,0,0l1.5,0c0.2,0,0.4,0.2,0.5,0.4c3.5,10.5,13.2,17.5,24.2,17.6
		c0.1,0,0.1,0,0.2,0c7.1,0,14-3,18.9-8.3c0.3-0.3,0.4-0.8,0.3-1.2c-0.1-0.4-0.4-0.8-0.8-0.9c-0.5-0.2-1-0.1-1.4,0.3
		c-4.4,4.7-10.5,7.5-17,7.5c-0.1,0-0.1,0-0.2,0c-9.5-0.1-17.8-5.8-21.3-14.7c-0.1-0.2,0-0.3,0.1-0.5c0.1-0.1,0.3-0.3,0.4-0.2l1.5,0
		c0.2,0,0.4,0.1,0.5,0.3c3.2,7.6,10.6,12.5,18.8,12.6c5.1,0,9.9-1.8,13.7-5.1c0.3-0.3,0.5-0.7,0.4-1.2c-0.1-0.5-0.4-0.8-0.8-1
		c-0.4-0.2-1-0.1-1.3,0.2c-3.3,2.9-7.6,4.5-12,4.5C29.1,67,23,63.3,19.9,57.5c-0.1-0.2-0.1-0.4,0-0.5c0.1-0.2,0.3-0.3,0.5-0.3
		l49.2,0.4c0.6,0,1.2-0.4,1.3-1c0.1-0.4,0.1-0.7,0.2-1.1c0.2-1,0.3-2,0.4-3.1c0-0.6,0.1-1.2,0.1-1.8l0-0.3c0-0.2,0-0.3,0-0.5
		C71.6,48.6,71.6,47.9,71.5,47z M68.8,52.8c0,0.4-0.1,0.8-0.2,1.3c0,0.3-0.3,0.4-0.5,0.4c0,0,0,0,0,0L3.4,54c-0.3,0-0.5-0.2-0.5-0.4
		c-0.1-0.4-0.1-0.8-0.1-1.3c0-0.1,0-0.3,0.1-0.4c0.1-0.1,0.2-0.2,0.4-0.2c0,0,0,0,0,0l65,0.5c0.2,0,0.3,0.1,0.4,0.2
		C68.7,52.5,68.8,52.7,68.8,52.8z M35.8,15.8c0.1,0,0.2,0,0.3,0C50.9,15.9,64,26,67.9,40.4c0.2,0.6,0.3,1.2,0.4,1.8
		c0.1,0.6,0.2,1.3,0.3,2c0,0.2,0,0.3-0.1,0.4c-0.1,0.1-0.2,0.2-0.4,0.2c0,0,0,0,0,0l-1.4,0c-0.3,0-0.5-0.2-0.5-0.5
		c-0.1-0.8-0.3-1.5-0.4-2.3c-0.2-0.7-0.3-1.3-0.5-1.8c-3.9-13-15.6-21.8-29.2-21.9c-0.1,0-0.2,0-0.2,0c-13.5,0-25.2,8.6-29.3,21.5
		c-0.2,0.6-0.3,1.2-0.5,1.8c-0.2,0.8-0.3,1.5-0.5,2.3c0,0.3-0.3,0.4-0.5,0.5l-1.4,0c-0.2,0-0.3-0.1-0.4-0.2C3,44,3,43.8,3,43.7
		c0.1-0.7,0.2-1.3,0.4-2c0.1-0.6,0.3-1.2,0.5-1.8C7.9,25.7,21,15.8,35.8,15.8z M59.9,40.1c-3.7-10-13.3-16.7-23.9-16.8
		c-0.1,0-0.1,0-0.2,0c-10.5,0-20.1,6.6-23.9,16.4c-0.2,0.6-0.4,1.2-0.6,1.8c-0.2,0.8-0.4,1.5-0.6,2.3c-0.1,0.3-0.3,0.4-0.5,0.4
		l-1.4,0c-0.2,0-0.3-0.1-0.4-0.2c-0.1-0.1-0.1-0.3-0.1-0.5c0.1-0.7,0.3-1.3,0.4-1.9c0.1-0.6,0.3-1.1,0.5-1.8
		C13,28.4,23.8,20.7,36,20.8c12.2,0.1,22.8,8,26.6,19.5c0.2,0.7,0.4,1.3,0.5,1.8c0.2,0.6,0.3,1.3,0.4,1.9c0,0.2,0,0.3-0.1,0.5
		c-0.1,0.1-0.2,0.2-0.4,0.2c0,0,0,0,0,0l-1.4,0c-0.3,0-0.5-0.2-0.5-0.4c-0.1-0.8-0.3-1.6-0.5-2.3h0C60.3,41.3,60.1,40.7,59.9,40.1z
		 M18.6,43.7c0.1-0.4,0.3-0.8,0.4-1.3c0.1-0.2,0.3-0.3,0.5-0.3c0,0,0,0,0,0l32.7,0.3c0.2,0,0.4,0.1,0.5,0.3c0.2,0.4,0.3,0.8,0.4,1.3
		c0,0.2,0,0.3-0.1,0.5c-0.1,0.1-0.3,0.2-0.4,0.2l-33.5-0.3c-0.2,0-0.3-0.1-0.4-0.2C18.5,44.1,18.5,43.9,18.6,43.7z M50.8,39.5
		c0,0.1-0.2,0.3-0.5,0.3c0,0,0,0,0,0l-28.9-0.2c-0.3,0-0.4-0.2-0.5-0.3c-0.1-0.2-0.1-0.4,0-0.6c3.4-4.9,8.9-7.8,14.8-7.8
		c0,0,0.1,0,0.1,0c5.9,0,11.5,3,14.8,8C50.9,39.1,50.9,39.3,50.8,39.5z M35.8,28.4c-7.8,0-14.9,4.3-18.4,11.4
		c-0.3,0.6-0.6,1.2-0.8,1.9c-0.3,0.8-0.6,1.6-0.8,2.4c-0.1,0.2-0.3,0.4-0.5,0.4c0,0,0,0,0,0l-1.5,0c-0.2,0-0.3-0.1-0.4-0.2
		c-0.1-0.1-0.1-0.3-0.1-0.5c0.1-0.6,0.3-1.3,0.5-1.9c0.2-0.6,0.4-1.2,0.7-1.8c3.6-8.6,12-14.1,21.3-14.1c0.1,0,0.1,0,0.2,0
		c9.4,0.1,17.7,5.8,21.2,14.5c0.2,0.6,0.5,1.2,0.6,1.8c0.2,0.6,0.4,1.3,0.5,1.9c0,0.2,0,0.3-0.1,0.4c-0.1,0.1-0.2,0.2-0.4,0.2
		l-1.5,0c-0.2,0-0.5-0.2-0.5-0.4c-0.2-0.8-0.4-1.6-0.7-2.4c-0.2-0.6-0.5-1.3-0.8-1.9C50.9,32.9,43.8,28.5,36,28.4
		C35.9,28.4,35.8,28.4,35.8,28.4z M2.6,47.4c0-0.3,0.2-0.5,0.5-0.5c0,0,0,0,0,0l65.3,0.5c0.3,0,0.5,0.2,0.5,0.5c0,0.4,0,0.9,0,1.4
		c0,0,0,0,0,0c0,0.2-0.2,0.4-0.4,0.4l-2.5,0L3,49.2c-0.2,0-0.4-0.2-0.4-0.4c0,0,0,0,0,0C2.6,48.3,2.6,47.8,2.6,47.4z"/>
</g>
</svg>
