<?xml version="1.0" encoding="utf-8"?>
<!-- Generator: Adobe Illustrator 16.0.4, SVG Export Plug-In . SVG Version: 6.00 Build 0)  -->
<!DOCTYPE svg PUBLIC "-//W3C//DTD SVG 1.1//EN" "http://www.w3.org/Graphics/SVG/1.1/DTD/svg11.dtd">
<svg version="1.1" id="Calque_1" xmlns="http://www.w3.org/2000/svg" xmlns:xlink="http://www.w3.org/1999/xlink" x="0px" y="0px"
	 width="85.2px" height="28.2px" viewBox="0 0 85.2 28.2" enable-background="new 0 0 85.2 28.2" xml:space="preserve">
<g>
	<defs>
		<rect id="SVGID_1_" y="0.025" width="85.289" height="28.209"/>
	</defs>
	<clipPath id="SVGID_2_">
		<use xlink:href="#SVGID_1_"  overflow="visible"/>
	</clipPath>
	<path clip-path="url(#SVGID_2_)" fill="#FFFFFF" d="M10.702,28.235C4.801,28.235,0,23.434,0,17.532
		C0,11.631,4.801,6.829,10.702,6.829c5.789,0,10.153,4.602,10.153,10.703v1.185H2.452c0.577,4.035,4.058,7.15,8.25,7.15
		c2.984,0,5.975-1.577,7.442-3.928l2.008,1.255C18.24,26.257,14.53,28.235,10.702,28.235 M2.452,16.349h15.964
		c-0.506-4.15-3.653-7.151-7.714-7.151C6.51,9.198,3.029,12.312,2.452,16.349"/>
	<path clip-path="url(#SVGID_2_)" fill="#FFFFFF" d="M22.819,13.086c0-0.371-0.015-0.822-0.042-1.351
		c-0.03-0.529-0.051-1.065-0.064-1.609c-0.016-0.542-0.037-1.051-0.065-1.523c-0.029-0.471-0.043-0.837-0.043-1.094h2.574
		c0.028,0.744,0.049,1.458,0.064,2.145c0.014,0.687,0.049,1.13,0.107,1.331h0.129c0.515-1.087,1.373-2.024,2.574-2.811
		c1.202-0.787,2.603-1.181,4.205-1.181c1.545,0,2.804,0.244,3.776,0.73c0.972,0.487,1.737,1.124,2.295,1.91
		c0.558,0.788,0.944,1.694,1.159,2.724c0.214,1.031,0.321,2.09,0.321,3.176V27.33h-2.574V15.661c0-0.801-0.071-1.581-0.214-2.339
		c-0.144-0.758-0.393-1.437-0.751-2.038c-0.357-0.6-0.857-1.079-1.501-1.437c-0.644-0.357-1.48-0.537-2.511-0.537
		c-0.943,0-1.838,0.166-2.681,0.494c-0.844,0.329-1.574,0.83-2.189,1.502c-0.615,0.672-1.1,1.516-1.458,2.531
		c-0.358,1.016-0.537,2.21-0.537,3.583v9.91h-2.574V13.086z"/>
	<path clip-path="url(#SVGID_2_)" fill="#FFFFFF" d="M41.62,17.419c0-1.516,0.258-2.909,0.772-4.184
		c0.516-1.271,1.23-2.373,2.147-3.304c0.915-0.929,2.016-1.651,3.304-2.166c1.287-0.516,2.687-0.773,4.204-0.773
		c1.515,0,2.91,0.258,4.184,0.773c1.271,0.515,2.372,1.237,3.303,2.166c0.929,0.931,1.651,2.032,2.167,3.304
		c0.514,1.274,0.772,2.668,0.772,4.184s-0.259,2.911-0.772,4.185c-0.516,1.272-1.238,2.372-2.167,3.304
		c-0.931,0.93-2.031,1.651-3.303,2.166c-1.273,0.514-2.669,0.772-4.184,0.772c-1.518,0-2.917-0.259-4.204-0.772
		c-1.288-0.515-2.389-1.236-3.304-2.166c-0.917-0.932-1.631-2.031-2.147-3.304C41.878,20.331,41.62,18.935,41.62,17.419
		 M44.194,17.419c0,1.116,0.179,2.167,0.536,3.153c0.359,0.987,0.881,1.845,1.567,2.575c0.686,0.729,1.516,1.307,2.487,1.737
		c0.974,0.429,2.062,0.643,3.262,0.643c1.201,0,2.288-0.214,3.262-0.643c0.971-0.431,1.8-1.009,2.487-1.737
		c0.687-0.73,1.208-1.588,1.565-2.575c0.357-0.986,0.536-2.037,0.536-3.153c0-1.115-0.179-2.166-0.536-3.153
		c-0.357-0.987-0.879-1.845-1.565-2.574c-0.688-0.729-1.517-1.309-2.487-1.738c-0.974-0.429-2.061-0.644-3.262-0.644
		c-1.2,0-2.288,0.215-3.262,0.644c-0.972,0.429-1.802,1.009-2.487,1.738c-0.687,0.729-1.208,1.587-1.567,2.574
		C44.373,15.253,44.194,16.304,44.194,17.419"/>
	<path clip-path="url(#SVGID_2_)" fill="#FFFFFF" d="M82.713,23.857h-0.086c-0.4,0.685-0.9,1.278-1.501,1.778
		c-0.602,0.502-1.251,0.917-1.951,1.245c-0.702,0.328-1.438,0.572-2.21,0.729c-0.773,0.156-1.531,0.236-2.273,0.236
		c-1.517,0-2.919-0.259-4.206-0.772c-1.288-0.515-2.389-1.236-3.304-2.166c-0.915-0.932-1.63-2.031-2.145-3.304
		c-0.515-1.273-0.772-2.669-0.772-4.185s0.258-2.909,0.772-4.184c0.515-1.271,1.229-2.373,2.145-3.304
		c0.915-0.929,2.016-1.651,3.304-2.166c1.287-0.516,2.689-0.773,4.206-0.773c0.742,0,1.5,0.08,2.273,0.237
		c0.771,0.157,1.508,0.401,2.21,0.73c0.7,0.329,1.35,0.744,1.951,1.244c0.601,0.5,1.101,1.094,1.501,1.78h0.086V0.025h2.575V27.33
		h-2.575V23.857z M82.971,17.419c0-1.115-0.214-2.166-0.643-3.153c-0.429-0.987-1.017-1.845-1.76-2.574s-1.617-1.309-2.617-1.738
		c-1.001-0.429-2.089-0.644-3.26-0.644c-1.202,0-2.289,0.215-3.263,0.644c-0.972,0.429-1.803,1.009-2.487,1.738
		c-0.687,0.729-1.209,1.587-1.567,2.574c-0.357,0.987-0.534,2.038-0.534,3.153c0,1.116,0.177,2.167,0.534,3.153
		c0.358,0.987,0.881,1.845,1.567,2.575c0.685,0.729,1.516,1.307,2.487,1.737c0.974,0.429,2.061,0.643,3.263,0.643
		c1.171,0,2.259-0.214,3.26-0.643c1-0.431,1.874-1.009,2.617-1.737c0.743-0.73,1.331-1.588,1.76-2.575
		C82.757,19.586,82.971,18.536,82.971,17.419"/>
	<rect x="3.521" y="0.025" clip-path="url(#SVGID_2_)" fill="#FDD95B" width="13.813" height="2.367"/>
</g>
</svg>
