<?xml version="1.0" standalone="no"?>
<!DOCTYPE svg PUBLIC "-//W3C//DTD SVG 20010904//EN"
 "http://www.w3.org/TR/2001/REC-SVG-20010904/DTD/svg10.dtd">
<svg version="1.0" xmlns="http://www.w3.org/2000/svg"
 width="260.000000pt" height="260.000000pt" viewBox="0 0 260.000000 260.000000"
 preserveAspectRatio="xMidYMid meet">
<metadata>
Created by potrace 1.11, written by Peter Selinger 2001-2013
</metadata>
<g transform="translate(0.000000,260.000000) scale(0.100000,-0.100000)"
fill="#000000" stroke="none">
<path d="M1095 2578 c-186 -32 -354 -98 -515 -203 -99 -64 -293 -258 -359
-360 -179 -275 -252 -605 -201 -911 26 -157 64 -275 132 -407 67 -130 144
-232 261 -344 182 -173 391 -283 636 -333 139 -28 374 -28 514 1 286 58 527
200 729 428 75 84 82 101 61 130 -25 37 -57 26 -103 -34 -169 -219 -458 -391
-739 -439 -526 -90 -1052 180 -1288 659 -49 101 -88 218 -79 240 7 18 60 20
73 2 5 -6 20 -41 33 -77 58 -166 151 -309 278 -432 147 -142 299 -229 497
-285 93 -26 113 -28 280 -28 165 0 188 2 278 28 116 32 235 83 315 133 128 82
269 215 286 270 8 26 -16 54 -45 54 -13 0 -50 -31 -94 -78 -130 -139 -304
-240 -493 -288 -473 -120 -964 114 -1173 560 -21 47 -42 98 -45 115 -6 27 -3
31 21 37 29 7 54 -3 66 -27 4 -8 25 -52 47 -99 54 -119 148 -239 246 -317 207
-163 449 -234 697 -204 201 24 365 99 527 238 48 42 62 61 62 82 0 63 -50 67
-105 10 -93 -96 -246 -182 -393 -220 -108 -29 -287 -29 -397 0 -99 26 -209 77
-290 136 -111 79 -229 225 -280 347 -14 35 -14 38 5 48 37 20 69 2 99 -59 71
-139 191 -256 336 -326 111 -54 205 -75 330 -75 120 0 217 21 320 70 139 65
208 128 185 169 -17 33 -55 25 -125 -24 -293 -210 -685 -149 -902 140 -91 121
-191 109 860 100 765 -6 915 -5 924 7 24 28 35 148 31 326 -4 148 -9 193 -31
274 -54 203 -137 365 -269 522 -203 242 -469 391 -796 445 -148 25 -260 25
-407 -1z m380 -88 c307 -44 601 -219 791 -469 110 -146 218 -396 226 -524 l3
-42 -41 -3 c-41 -3 -41 -3 -48 36 -23 144 -108 345 -198 467 -205 278 -510
439 -856 452 -205 8 -374 -27 -547 -114 -224 -112 -390 -281 -501 -508 -48
-99 -94 -239 -94 -287 0 -27 -43 -44 -75 -30 -29 13 -29 10 12 157 31 113 96
252 165 352 68 99 212 243 311 311 141 97 342 178 502 201 84 12 267 12 350 1z
m39 -195 c314 -65 579 -276 716 -568 39 -84 80 -213 80 -255 0 -21 -4 -23 -42
-20 l-41 3 -21 80 c-98 369 -412 639 -798 686 -324 39 -657 -109 -858 -381
-63 -86 -97 -154 -135 -275 -30 -95 -34 -100 -61 -103 -16 -1 -35 2 -43 7 -32
21 54 256 144 391 231 347 652 520 1059 435z m-14 -186 c271 -62 504 -272 596
-539 34 -96 30 -115 -20 -115 -39 0 -40 1 -52 50 -19 73 -86 202 -138 265
-105 127 -267 224 -425 256 -112 22 -277 15 -376 -16 -230 -71 -406 -241 -486
-470 -26 -73 -27 -75 -63 -78 -50 -4 -54 14 -23 104 106 309 384 529 712 564
90 9 169 3 275 -21z m-17 -183 c77 -24 168 -72 229 -121 61 -48 138 -138 138
-161 0 -12 -70 -14 -457 -14 -252 0 -495 3 -540 7 -100 7 -103 15 -37 91 86
98 220 176 359 208 73 17 238 11 308 -10z m431 -405 c18 -15 22 -56 6 -66 -5
-3 -284 -3 -621 1 -450 5 -612 10 -615 19 -3 6 0 24 6 39 l10 28 599 -3 c487
-3 601 -7 615 -18z m374 -167 l223 -6 -3 -37 -3 -36 -1070 4 c-588 2 -1128 7
-1200 10 -126 6 -130 7 -133 29 -8 57 -77 54 985 47 538 -3 1078 -8 1201 -11z
m-388 -173 l595 -6 3 -34 c2 -20 -2 -38 -10 -43 -7 -5 -87 -7 -178 -4 -91 3
-619 9 -1175 12 -556 3 -1013 8 -1017 11 -5 2 -8 20 -8 39 l0 34 598 -1 c328
-1 865 -5 1192 -8z"/>
</g>
</svg>
